<svg xmlns="http://www.w3.org/2000/svg" width="25" height="25" viewBox="0 0 25 25"><title>dribbble</title><path d="M11.91 9a64.93 64.93 0 0 0-4-6.15 10.7 10.7 0 0 0-5.86 7.45A39.47 39.47 0 0 0 11.91 9zm1.33 3.59l.42-.13c-.27-.61-.56-1.22-.87-1.82a39 39 0 0 1-11 1.52v.34a10.63 10.63 0 0 0 2.74 7.14 16.9 16.9 0 0 1 8.71-7.06zm-7.3 8.33l-.24-.19zm4-18.78zm9.61 2.35A10.67 10.67 0 0 0 10 2.13a54.73 54.73 0 0 1 4 6.23 11.64 11.64 0 0 0 5.55-3.87zM12.5 25A12.5 12.5 0 1 1 25 12.5 12.5 12.5 0 0 1 12.5 25zm1.82-10.75C8 16.43 6 20.82 5.94 20.91a10.67 10.67 0 0 0 10.73 1.42 44.24 44.24 0 0 0-2.28-8.11zm.48-4.3c.25.51.49 1 .71 1.55l.23.5a24.77 24.77 0 0 1 7.44.35 10.65 10.65 0 0 0-2.43-6.67 13.81 13.81 0 0 1-5.95 4.27zm1.59 3.78a46.44 46.44 0 0 1 2.08 7.62A10.68 10.68 0 0 0 23 14.19a15.52 15.52 0 0 0-6.61-.46z" fill="#fff"/></svg>