<svg data-name="Layer 1" xmlns="http://www.w3.org/2000/svg" width="25" height="20.32" viewBox="0 0 25 20.32"><title>twitter</title><path d="M25 2.4a10.27 10.27 0 0 1-2.95.81A5.15 5.15 0 0 0 24.31.37a10.27 10.27 0 0 1-3.26 1.24 5.13 5.13 0 0 0-8.74 4.69A14.56 14.56 0 0 1 1.74.94a5.13 5.13 0 0 0 1.59 6.85A5.11 5.11 0 0 1 1 7.15v.06a5.13 5.13 0 0 0 4.11 5 5.14 5.14 0 0 1-2.32.09 5.13 5.13 0 0 0 4.79 3.56 10.29 10.29 0 0 1-6.37 2.2A10.37 10.37 0 0 1 0 18a14.51 14.51 0 0 0 7.86 2.3A14.49 14.49 0 0 0 22.45 5.72v-.66A10.43 10.43 0 0 0 25 2.4z" fill="#fff"/></svg>