<svg id="Layer_1" xmlns="http://www.w3.org/2000/svg" width="33.3" height="33.3" viewBox="0 0 33.3 33.3"><style>.st0{fill:#CCCCCC}.st1{fill:#FFFFFF}</style><circle class="st0" cx="16.6" cy="16.6" r="16.6"/><path class="st1" d="M22 23.9V9.3c2 1.1 2.9 2.3 3.5 4.3H29c-1.4-5-6.3-9.4-12.1-9.4C10 4.2 4.4 9.8 4.4 16.7S10.1 29 17 29c5.8 0 10.6-4.4 12.1-9.4h-3.5c-.7 2-1.6 3.2-3.6 4.3zM19 7.8v7.8h-4V7.7c1-.1 1.2-.2 1.9-.2.8 0 1.1.1 2.1.3zM8 16.6c0-3.1 1-5.9 4-7.5v15.1c-3-1.7-4-4.5-4-7.6zm7 8.9v-7.9h4v7.9c-1 .2-1.3.3-2.1.3-.6 0-.9-.1-1.9-.3z"/></svg>